<?xml version="1.0" encoding="UTF-8" standalone="no"?>
<svg
   id="svg"
   width="400"
   height="400"
   viewBox="0, 0, 400,400"
   version="1.1"
   sodipodi:docname="brain-small-black.svg"
   inkscape:version="1.2 (dc2aedaf03, 2022-05-15)"
   xmlns:inkscape="http://www.inkscape.org/namespaces/inkscape"
   xmlns:sodipodi="http://sodipodi.sourceforge.net/DTD/sodipodi-0.dtd"
   xmlns="http://www.w3.org/2000/svg"
   xmlns:svg="http://www.w3.org/2000/svg">
  <defs
     id="defs7" />
  <sodipodi:namedview
     id="namedview5"
     pagecolor="#ffffff"
     bordercolor="#000000"
     borderopacity="0.25"
     inkscape:showpageshadow="2"
     inkscape:pageopacity="0.0"
     inkscape:pagecheckerboard="0"
     inkscape:deskcolor="#d1d1d1"
     showgrid="false"
     inkscape:zoom="1.4654788"
     inkscape:cx="102.01444"
     inkscape:cy="229.2766"
     inkscape:window-width="1920"
     inkscape:window-height="1009"
     inkscape:window-x="-8"
     inkscape:window-y="-8"
     inkscape:window-maximized="1"
     inkscape:current-layer="svgg" />
  <g
     id="svgg"
     transform="translate(-1.9300362,-6.2726176)">
    <path
       id="path0"
       d="m 228.54177,76.75242 -4.63648,3.144445 -6.60012,-2.503337 c -8.22261,-3.118377 -21.50936,-3.286189 -31.08105,-0.392647 -4.38186,1.325392 -12.00461,2.161195 -20.47532,2.245101 -11.61938,0.115677 -14.38854,0.576753 -19.92197,3.317146 -3.60733,1.787283 -9.05751,3.287819 -12.42491,3.421417 -6.88086,0.272899 -17.44498,4.505681 -18.5737,7.442399 -0.43011,1.11685 -2.28519,1.98931 -4.23087,1.98931 -16.568447,0 -44.195591,35.619396 -40.793921,52.594506 0.612921,3.06136 0.009,4.17739 -3.857076,7.11981 -8.786559,6.68969 -11.824231,20.28901 -7.328933,32.80895 2.075442,5.77975 2.05259,6.08524 -0.90102,12.17537 -3.937873,8.12016 -4.003164,19.89146 -0.168941,30.48401 2.103193,5.81152 2.411693,8.12749 1.345,10.1168 -11.161527,20.81689 24.505408,59.98723 42.790201,46.99154 5.52037,-3.92403 5.60606,-2.53999 0.4554,7.35442 -11.762198,22.59439 -2.594506,44.10045 18.79897,44.10045 13.29328,0 20.55774,-5.7879 32.13795,-25.60362 7.7778,-13.31012 7.18039,-13.06817 17.24747,-6.98865 29.51325,17.82233 44.47145,16.86597 58.7188,-3.75541 1.91956,-2.77787 2.7863,-3.09068 6.01332,-2.16689 6.24755,1.7889 19.11889,-2.07974 23.18245,-6.96748 1.21767,-1.46469 2.88668,-1.81009 5.96272,-1.23415 5.1278,0.96044 12.31228,-4.19939 16.70637,-11.99859 2.50147,-4.44051 3.07032,-4.75739 7.84801,-4.37453 8.40378,0.6737 12.09354,-5.59076 7.30933,-12.40833 -1.90404,-2.71433 -1.89344,-3.3978 0.14038,-8.71321 l 2.20684,-5.76835 5.32205,1.03131 c 33.96937,6.58134 53.72974,-25.77794 42.04261,-68.84544 -2.45657,-9.05046 -2.49084,-9.98891 -0.57537,-15.80532 6.18145,-18.77055 -4.97519,-44.87107 -21.26207,-49.7417 -4.33941,-1.2977 -5.47793,-2.4398 -7.79821,-7.82365 -8.25526,-19.155041 -33.23239,-31.982099 -51.58737,-26.493168 -4.63813,1.386489 -5.16127,1.261851 -8.13284,-1.937989 -6.42872,-6.923483 -19.82485,-8.276572 -27.8777,-2.814523 m -21.95089,12.963914 c 5.7089,3.99165 2.22643,13.397286 -4.96131,13.397286 -3.23599,0 -8.89103,-4.895066 -8.89103,-7.697366 0,-5.622531 8.78983,-9.239458 13.85234,-5.69992 m 35.20827,3.97455 c 3.50939,3.17051 3.02053,5.2869 -5.01926,21.721106 l -7.36893,15.06239 -0.49621,18.04145 c -0.52886,19.21126 -1.20952,21.17287 -7.37953,21.26656 -5.27879,0.0798 -7.26528,-4.03483 -6.29816,-13.04457 0.48235,-4.4959 0.2628,-11.44463 -0.48968,-15.50798 l -1.36377,-7.36338 7.18449,-15.69697 c 11.42595,-24.965756 15.49603,-29.658798 21.23105,-24.478606 m -66.27626,5.94104 c 15.98655,17.230096 21.27268,25.431726 20.43614,31.705136 -0.55415,4.1505 0.32972,10.34898 3.1454,22.05919 5.47794,22.7793 5.14087,25.40727 -3.25231,25.40727 -5.74726,0 -7.03187,-2.24429 -8.22343,-14.36832 -2.3064,-23.45301 -9.27379,-41.23297 -20.01011,-51.05814 -1.9269,-1.76447 -5.17106,-5.47427 -7.20978,-8.24399 l -3.70527,-5.036 3.47757,-3.623436 c 5.05843,-5.269798 8.10345,-4.643352 15.34179,3.15829 m 99.69228,-2.09195 c 5.23309,4.726446 0.71004,15.837086 -6.4475,15.837086 -7.43911,0 -10.57472,-9.19058 -5.11557,-14.991506 3.27599,-3.48007 8.24465,-3.84421 11.56307,-0.84558 M 135.90176,107.67633 c 5.8811,4.1114 2.10074,17.24639 -4.96376,17.24639 -6.18144,0 -10.97137,-9.3975 -7.2408,-14.20459 3.77874,-4.869 8.06347,-5.93697 12.20456,-3.0418 m 166.90791,7.68923 c 5.75787,5.74635 1.16381,15.13977 -7.05635,14.43023 -6.3667,-0.54986 -10.17807,-5.81152 -8.00388,-11.05036 2.84833,-6.8632 9.96996,-8.46149 15.06023,-3.37987 m -37.13028,12.44337 c 4.90908,5.25024 4.85767,8.88427 -0.21708,15.18213 -9.46233,11.7428 -11.40556,15.26034 -12.03317,21.7765 -0.87164,9.05454 -6.67929,12.93378 -12.07071,8.06396 -3.40411,-3.07521 -2.91362,-7.88148 1.96282,-19.25118 12.05111,-28.09716 15.96451,-32.60854 22.35814,-25.77141 m -160.27269,9.23783 c 5.2135,6.89333 13.3545,12.24215 18.65533,12.25763 7.67171,0.022 27.54879,13.22459 27.54879,18.29888 0,7.28518 -7.08164,8.32951 -16.27301,2.39988 -4.22107,-2.72247 -11.00891,-6.19603 -15.08471,-7.71774 -20.967446,-7.83098 -30.600337,-17.9046 -25.863464,-27.04793 1.595553,-3.0801 2.659798,-4.07231 5.447738,-5.08244 0.15343,-0.0554 2.659786,3.04588 5.569326,6.89172 m 60.094,-3.4646 c 4.17537,5.89707 13.10067,24.46884 13.10067,27.25973 0,8.13647 -10.85057,5.82782 -16.24037,-3.45563 -1.96852,-3.39045 -5.19309,-8.41669 -7.16488,-11.16848 -4.28474,-5.97852 -4.45204,-8.30345 -0.92142,-12.78388 3.50368,-4.44621 8.01531,-4.38674 11.226,0.14826 m 144.70809,12.04013 c 2.35049,1.06879 4.67403,1.08426 8.7278,0.057 9.4313,-2.3893 15.31241,4.75006 8.77676,10.65364 -2.19051,1.97872 -3.93052,2.17749 -12.37349,1.41337 -16.68026,-1.50869 -23.18,1.53149 -37.55711,17.5649 -6.78458,7.56622 -14.81458,4.89508 -11.17214,-3.71631 6.6393,-15.69453 32.42359,-31.05506 43.59818,-25.97263 M 98.369954,170.42184 c 3.491436,1.03458 10.102986,4.53501 14.692136,7.77802 4.58997,3.24302 13.11618,8.50386 18.94832,11.69229 11.56225,6.31985 13.24839,9.36247 8.06183,14.53939 -2.71775,2.7127 -4.84461,2.44225 -10.31111,-1.31235 -1.76694,-1.21297 -6.97229,-4.04379 -11.56715,-6.29052 -4.59487,-2.24674 -11.49614,-5.77894 -15.33527,-7.84971 -5.019246,-2.70618 -8.545791,-3.70572 -12.547323,-3.5542 -10.099729,0.38123 -15.11409,-7.43996 -8.806147,-13.73537 3.660387,-3.65358 7.772914,-3.96232 16.864714,-1.26755 m 223.621436,7.721 c 20.41166,11.93994 10.23848,56.9943 -11.18682,49.53968 -2.06239,-0.71768 -4.57773,-0.98814 -5.58892,-0.60037 -3.24661,1.24311 -10.3258,-1.99909 -15.12225,-6.92675 -20.56509,-21.12806 6.54952,-56.84033 31.89799,-42.01256 m -148.78878,2.19948 c 2.72509,2.72002 1.68614,6.93327 -5.20534,21.09874 -7.78352,16.00083 -8.48622,23.47174 -3.49634,37.20548 4.13782,11.39087 4.45122,14.30478 1.84447,17.17959 -7.67906,8.46963 -14.96311,-2.30783 -16.70802,-24.72056 -1.11402,-14.30968 9.08364,-49.02239 15.11248,-51.44102 2.98379,-1.19748 6.88739,-0.88468 8.45275,0.67777 m 129.28223,7.41552 c -7.7468,3.12408 -10.48168,14.50273 -4.9507,20.60263 6.42303,7.08479 18.31581,5.2698 21.92151,-3.34483 4.71239,-11.25647 -5.67135,-21.81481 -16.97081,-17.2578 m -62.79297,4.45029 c 4.79238,1.99827 5.9064,5.60623 2.58227,8.36048 -3.24171,2.68499 -31.9282,7.64767 -39.62602,6.85505 -7.76069,-0.79996 -8.55968,-0.0366 -16.33586,15.59351 -4.66342,9.37468 -12.85257,9.60442 -12.85257,0.36088 0,-4.53827 11.87647,-26.00277 15.44055,-27.90655 1.31153,-0.70057 6.90454,-1.29932 12.42981,-1.33028 5.52445,-0.0301 13.51527,-0.83743 17.75675,-1.79217 10.33559,-2.32819 15.28058,-2.36159 20.60507,-0.14092 m 72.31895,0.96288 c 2.20521,2.20111 1.90324,7.48231 -0.58435,10.22596 -4.96622,5.47753 -13.49568,-0.003 -10.84324,-6.96746 1.7743,-4.65721 8.19324,-6.48685 11.42759,-3.2585 m -43.61858,7.30472 c 1.04059,0.65741 1.88937,3.90449 2.09095,7.99798 0.18771,3.79044 1.85754,11.17744 3.7118,16.41548 4.33289,12.24296 4.2529,14.37972 -0.94754,25.14985 -5.5579,11.509 -6.33487,12.12078 -24.24995,19.10373 -23.5644,9.18488 -29.37205,7.11491 -35.69714,-12.72605 -0.89938,-2.82184 -3.29149,-8.4346 -5.3147,-12.47106 -6.0533,-12.07597 -0.85368,-22.15938 14.03679,-27.2239 22.21859,-7.55643 38.56668,10.01335 23.40117,25.15069 -6.84496,6.83142 -16.52029,2.98885 -14.05719,-5.58262 1.87141,-6.51291 1.54985,-7.45462 -2.54717,-7.45462 -10.91913,0 -10.92647,20.4389 -0.0115,30.58911 3.93379,3.65847 4.89684,3.55176 17.10792,-1.88341 17.90039,-7.96865 20.86135,-12.74885 16.39461,-26.46548 -5.68522,-17.45738 -6.61808,-22.84692 -4.62261,-26.69765 2.46474,-4.75822 6.83272,-6.3508 10.70448,-3.90205 m -175.819327,6.59601 c 5.650141,3.01818 0.684742,15.34914 -6.181441,15.34914 -4.515701,0 -8.040608,-3.46216 -8.040608,-7.89615 0,-6.91942 7.683138,-10.9461 14.222049,-7.45299 m 37.485297,17.79871 c 14.35426,1.79705 11.28068,8.18533 -6.07045,12.61606 -16.37829,4.18147 -21.76318,7.13692 -27.752827,15.22939 -5.927623,8.00937 -9.979756,9.06919 -13.59852,3.55663 -3.4588,-5.26898 1.257671,-12.82623 14.203281,-22.75731 14.355076,-11.01207 14.815376,-11.24261 20.711176,-10.34734 2.82792,0.4293 8.45602,1.19505 12.50734,1.70257 m 64.2612,21.12562 c 5.11311,3.87597 8.93102,16.73481 5.87376,19.78556 -4.75891,4.75008 -20.30719,-4.72155 -20.30719,-12.37005 0,-6.87868 9.02487,-11.51551 14.43343,-7.41551 m -56.89228,13.54392 c 3.34617,6.2392 -1.03486,14.19563 -7.81699,14.19563 -3.82279,0 -7.56072,-3.97537 -7.56072,-8.04115 0,-6.6514 12.44206,-11.63037 15.37771,-6.15448 m 26.88609,14.75935 c 1.96771,1.01583 7.55908,2.76808 12.42491,3.89471 4.86664,1.12662 11.39821,3.47111 14.51423,5.20952 3.86931,2.15875 7.6611,3.16073 11.95808,3.16073 7.86922,0 10.72979,3.93627 6.99431,9.6264 -4.3843,6.6791 -12.79298,7.53201 -19.16866,1.94452 -2.69245,-2.35997 -6.96576,-4.38105 -11.1599,-5.27877 -3.73874,-0.79996 -9.69493,-2.79497 -13.23697,-4.43318 l -6.44097,-2.97826 -6.543,3.33344 c -3.59836,1.8329 -8.27811,3.6878 -10.39925,4.12118 -3.97542,0.81218 -5.40448,2.94405 -12.52203,18.68094 -4.67321,10.33268 -13.60342,8.40854 -12.09111,-2.60516 2.27785,-16.58736 8.66413,-25.26391 20.19864,-27.43977 5.65829,-1.06798 9.69166,-2.73795 12.76932,-5.28772 5.087,-4.21405 7.57296,-4.5961 12.7024,-1.94858"
       stroke="none"
       fill="#000000"
       fill-rule="evenodd"
       style="fill:#000000;fill-opacity:1;stroke:#000000;stroke-width:2.29123;stroke-dasharray:none;stroke-opacity:1" />
  </g>
</svg>
